<svg width="13" height="16" viewBox="0 0 13 16" fill="none" xmlns="http://www.w3.org/2000/svg">
<path fill-rule="evenodd" clip-rule="evenodd" d="M6.49789 14.4407C9.33044 14.4407 11.4971 12.4599 11.4971 9.94063C11.4971 8.45005 10.7947 7.72832 9.55693 6.49512C8.53872 5.48069 7.27583 4.20694 6.74902 2.0862C6.46086 2.3156 6.17936 2.60092 5.9531 2.93537C5.46604 3.6553 5.24058 4.57355 5.83879 5.76994C6.31231 6.71697 6.50841 8.05354 5.56066 9.00129C4.99612 9.56583 4.03042 9.96309 2.98238 9.52402C2.51163 9.3268 2.12204 8.99783 1.79773 8.58593C1.61652 8.96555 1.50001 9.42895 1.5 9.94067C1.49994 12.4704 3.6636 14.4407 6.49789 14.4407ZM8.01433 0.440429C7.99819 0.164759 7.77398 -0.0572068 7.50695 0.0131502C5.79801 0.463423 2.7625 2.97154 4.49715 6.44077C4.84142 7.1293 4.78164 7.65899 4.5 7.94063C4.03859 8.40205 3.15137 8.43766 2.4261 6.66447C2.31949 6.40384 2.02626 6.2574 1.78436 6.40154C0.682776 7.05796 3.46795e-05 8.47613 1.7298e-09 9.94063C-8.31534e-05 13.4527 2.99789 15.9407 6.49789 15.9407C9.99788 15.9407 12.9971 13.4406 12.9971 9.94063C12.9971 7.80342 11.8699 6.68124 10.6862 5.50282C9.45553 4.27756 8.16373 2.99149 8.01433 0.440429Z" fill="#FF9900"/>
</svg>
