<svg width="13" height="13" viewBox="0 0 13 13" fill="none" xmlns="http://www.w3.org/2000/svg">
<path d="M6.91257 0C7.15919 0.0331588 7.40804 0.0554101 7.65244 0.101658C9.70987 0.489529 11.2447 1.59075 12.2468 3.39267C12.8844 4.5397 13.0964 5.77836 12.9613 7.07417C12.6845 9.73037 10.6302 12.0026 7.97861 12.5964C6.81392 12.8573 5.66078 12.8237 4.52587 12.4546C4.28813 12.3774 4.07572 12.4428 3.8562 12.4795C2.86348 12.6462 1.8721 12.8211 0.879822 12.9926C0.738513 13.017 0.612313 12.9843 0.518995 12.8726C0.417679 12.7513 0.42079 12.6165 0.481668 12.4786C0.776285 11.8076 1.06957 11.1357 1.36774 10.466C1.40373 10.3853 1.3984 10.3298 1.34419 10.2609C0.820722 9.59773 0.447896 8.85908 0.225268 8.05017C0.00263911 7.24084 -0.0555732 6.41841 0.0532971 5.58552C0.208826 4.39398 0.66697 3.32723 1.43706 2.3966C2.46622 1.15314 3.78733 0.383072 5.39727 0.101658C5.65056 0.0571553 5.90785 0.0340314 6.16292 0.0008726C6.41221 0 6.66239 0 6.91257 0ZM1.38507 12.1841C1.42284 12.1841 1.44861 12.1876 1.47261 12.1837C2.27825 12.0454 3.08478 11.9127 3.8882 11.764C4.19881 11.7064 4.48765 11.7059 4.79738 11.805C5.94518 12.1732 7.10498 12.1675 8.2519 11.8024C11.0883 10.8997 12.7502 8.11562 12.1819 5.24084C11.5842 2.21422 8.51096 0.188918 5.41816 0.802792C3.53715 1.17627 2.15294 2.22251 1.29975 3.90663C0.60698 5.27443 0.531438 6.70332 1.00469 8.15925C1.22776 8.84468 1.58015 9.45986 2.04984 10.01C2.18493 10.1684 2.20404 10.325 2.11783 10.5127C1.93742 10.9053 1.76856 11.3032 1.59526 11.699C1.52593 11.8578 1.45795 12.0166 1.38507 12.1841Z" fill="#4399E9"/>
<path d="M6.50651 6.85415C7.22994 6.85415 7.95293 6.85241 8.67636 6.85502C8.95142 6.8559 9.12517 7.09062 9.02874 7.32622C8.97631 7.45362 8.87766 7.52867 8.73635 7.54394C8.70658 7.54699 8.67636 7.54699 8.64614 7.54699C7.21661 7.54699 5.78752 7.54612 4.35799 7.5483C4.19313 7.54874 4.06115 7.50162 3.98516 7.35066C3.86785 7.11767 4.03582 6.85851 4.31133 6.8559C4.76769 6.85153 5.22406 6.85459 5.68043 6.85415C5.95505 6.85415 6.23056 6.85415 6.50651 6.85415Z" fill="#4399E9"/>
<path d="M5.257 5.80916C4.94728 5.80916 4.63755 5.81352 4.32783 5.80785C4.05987 5.80305 3.89457 5.59537 3.96256 5.36064C4.00433 5.21666 4.13008 5.11239 4.29806 5.11108C4.93883 5.10671 5.57961 5.10541 6.22084 5.11195C6.42614 5.11413 6.57411 5.27644 6.571 5.46274C6.56789 5.65558 6.41636 5.80305 6.19906 5.80698C5.88489 5.81352 5.57073 5.80916 5.257 5.80916Z" fill="#4399E9"/>
</svg>
