<svg width="24" height="24" viewBox="0 0 24 24" fill="none" xmlns="http://www.w3.org/2000/svg">
<circle cx="12" cy="12" r="12" fill="#4399E9" fill-opacity="0.09"/>
<path fill-rule="evenodd" clip-rule="evenodd" d="M7.42188 8.03125C7.36801 8.03125 7.31634 8.05265 7.27824 8.09074C7.24015 8.12884 7.21875 8.18051 7.21875 8.23438V9.45312C7.21875 9.56525 7.30975 9.65625 7.42188 9.65625H17.5781C17.632 9.65625 17.6837 9.63485 17.7218 9.59676C17.7599 9.55866 17.7812 9.50699 17.7812 9.45312V8.23438C17.7812 8.18051 17.7599 8.12884 17.7218 8.09074C17.6837 8.05265 17.632 8.03125 17.5781 8.03125H7.42188ZM6 8.23438C6 7.4495 6.637 6.8125 7.42188 6.8125H17.5781C18.363 6.8125 19 7.4495 19 8.23438V9.45312C19 9.83023 18.8502 10.1919 18.5835 10.4585C18.3169 10.7252 17.9552 10.875 17.5781 10.875H7.42188C7.04477 10.875 6.68311 10.7252 6.41646 10.4585C6.1498 10.1919 6 9.83023 6 9.45312V8.23438ZM7.42188 11.6875C7.58349 11.6875 7.73849 11.7517 7.85277 11.866C7.96705 11.9803 8.03125 12.1353 8.03125 12.2969V16.7656C8.03125 16.8777 8.12225 16.9688 8.23438 16.9688H16.7656C16.8195 16.9688 16.8712 16.9474 16.9093 16.9093C16.9474 16.8712 16.9688 16.8195 16.9688 16.7656V12.2969C16.9688 12.1353 17.0329 11.9803 17.1473 11.866C17.2615 11.7517 17.4165 11.6875 17.5781 11.6875C17.7397 11.6875 17.8948 11.7517 18.009 11.866C18.1233 11.9803 18.1875 12.1353 18.1875 12.2969V16.7656C18.1875 17.1427 18.0377 17.5044 17.771 17.771C17.5044 18.0377 17.1427 18.1875 16.7656 18.1875H8.23438C7.85727 18.1875 7.49561 18.0377 7.22896 17.771C6.9623 17.5044 6.8125 17.1427 6.8125 16.7656V12.2969C6.8125 12.1353 6.8767 11.9803 6.99098 11.866C7.10526 11.7517 7.26026 11.6875 7.42188 11.6875ZM11.0781 12.5C10.9165 12.5 10.7615 12.5642 10.6472 12.6785C10.533 12.7928 10.4688 12.9478 10.4688 13.1094C10.4688 13.271 10.533 13.426 10.6472 13.5403C10.7615 13.6545 10.9165 13.7188 11.0781 13.7188H13.9219C14.0835 13.7188 14.2385 13.6545 14.3527 13.5403C14.4671 13.426 14.5312 13.271 14.5312 13.1094C14.5312 12.9478 14.4671 12.7928 14.3527 12.6785C14.2385 12.5642 14.0835 12.5 13.9219 12.5H11.0781Z" fill="#4399E9"/>
</svg>
