<svg width="24" height="25" viewBox="0 0 24 25" fill="none" xmlns="http://www.w3.org/2000/svg">
<circle cx="12" cy="12.75" r="12" fill="#64D031" fill-opacity="0.2"/>
<path fill-rule="evenodd" clip-rule="evenodd" d="M19 15.0167V8.51667C19 7.67903 18.3144 7 17.4688 7H6.53125C5.68556 7 5 7.67904 5 8.51667V15.0167C5 15.8543 5.68556 16.5333 6.53125 16.5333H9.79239C9.70568 17.4356 9.33722 18.1561 8.66181 18.9226C8.4926 19.1146 8.45233 19.3869 8.55882 19.619C8.66531 19.851 8.8989 20 9.15625 20H14.8437C15.1011 20 15.3347 19.851 15.4412 19.619C15.5477 19.3869 15.5074 19.1146 15.3382 18.9226C14.6628 18.1561 14.2943 17.4356 14.2076 16.5333H17.4688C18.3144 16.5333 19 15.8543 19 15.0167ZM17.6875 8.51667V15.0167C17.6875 15.1363 17.5896 15.2333 17.4688 15.2333H6.53125C6.41044 15.2333 6.3125 15.1363 6.3125 15.0167V8.51667C6.3125 8.397 6.41044 8.3 6.53125 8.3H17.4688C17.5896 8.3 17.6875 8.397 17.6875 8.51667ZM12.8906 16.5333H11.1094C11.0497 17.346 10.8196 18.0477 10.4402 18.7H13.5598C13.1804 18.0477 12.9503 17.346 12.8906 16.5333Z" fill="#4EB81C"/>
</svg>
