<svg width="34" height="34" viewBox="0 0 34 34" fill="none" xmlns="http://www.w3.org/2000/svg">
<rect width="34" height="34" rx="6" fill="#FFEFB7" fill-opacity="0.74"/>
<path fill-rule="evenodd" clip-rule="evenodd" d="M15.125 9.1875C15.125 9.01491 15.2649 8.875 15.4375 8.875H18.5625C18.7351 8.875 18.875 9.01491 18.875 9.1875V10.75H15.125V9.1875ZM20.75 9.1875V10.75H23.5625C24.0802 10.75 24.5 11.1697 24.5 11.6875C24.5 12.2053 24.0802 12.625 23.5625 12.625H10.4375C9.91974 12.625 9.5 12.2053 9.5 11.6875C9.5 11.1697 9.91974 10.75 10.4375 10.75H13.25V9.1875C13.25 7.97938 14.2294 7 15.4375 7H18.5625C19.7706 7 20.75 7.97938 20.75 9.1875ZM12.6203 15.3442C12.5688 14.829 12.1094 14.4531 11.5942 14.5046C11.079 14.5562 10.7031 15.0156 10.7547 15.5308L11.5796 23.7801C11.6914 24.8984 12.6324 25.75 13.7562 25.75H20.2438C21.3676 25.75 22.3086 24.8984 22.4204 23.7801L23.2454 15.5308C23.2969 15.0156 22.921 14.5562 22.4058 14.5046C21.8906 14.4531 21.4311 14.829 21.3796 15.3442L20.5547 23.5936C20.5387 23.7534 20.4043 23.875 20.2438 23.875H13.7562C13.5957 23.875 13.4613 23.7534 13.4453 23.5936L12.6203 15.3442Z" fill="#FFC113"/>
</svg>
