<svg width="40" height="40" viewBox="0 0 40 40" fill="none" xmlns="http://www.w3.org/2000/svg">
<rect width="40" height="40" rx="12" fill="#487CFF" fill-opacity="0.15"/>
<path fill-rule="evenodd" clip-rule="evenodd" d="M14.0731 14.5382C14.2582 14.3531 14.5093 14.2491 14.771 14.2491C15.0328 14.2491 15.2838 14.3531 15.4689 14.5382L19.4236 18.4929L23.3783 14.5382C23.5634 14.3531 23.8144 14.2491 24.0761 14.2492C24.3379 14.2491 24.589 14.3531 24.774 14.5382C24.9591 14.7233 25.0631 14.9743 25.0631 15.2361C25.0631 15.4978 24.9591 15.7489 24.774 15.934L20.8194 19.8887L24.774 23.8434C24.9591 24.0284 25.0631 24.2795 25.0631 24.5412C25.0631 24.803 24.9591 25.054 24.774 25.2391C24.589 25.4242 24.3379 25.5282 24.0761 25.5282C23.8144 25.5282 23.5634 25.4242 23.3783 25.2391L19.4236 21.2844L15.4689 25.2391C15.2838 25.4242 15.0328 25.5282 14.771 25.5282C14.5093 25.5282 14.2582 25.4242 14.0731 25.2391C13.888 25.054 13.784 24.803 13.784 24.5412C13.784 24.2795 13.888 24.0285 14.0731 23.8434L18.0278 19.8887L14.0731 15.934C13.888 15.7489 13.784 15.4978 13.784 15.2361C13.784 14.9743 13.888 14.7233 14.0731 14.5382Z" fill="#4172ED"/>
</svg>
