<svg width="34" height="34" viewBox="0 0 34 34" fill="none" xmlns="http://www.w3.org/2000/svg">
<rect width="34" height="34" rx="6" fill="#EFF6FC"/>
<path fill-rule="evenodd" clip-rule="evenodd" d="M13.75 10.5C13.0596 10.5 12.5 11.0596 12.5 11.75C12.5 12.4404 13.0596 13 13.75 13H16.0587C15.8258 12.1824 15.5166 11.5989 15.1806 11.2068C14.7505 10.7051 14.2661 10.5 13.75 10.5ZM11 11.75C11 12.2001 11.1081 12.625 11.2998 13H10.75C9.7835 13 9 13.7835 9 14.75V16.75C9 17.4481 9.40876 18.0507 10 18.3316V23.25C10 24.2165 10.7835 25 11.75 25H22.25C23.2165 25 24 24.2165 24 23.25V18.3316C24.5912 18.0507 25 17.4481 25 16.75V14.75C25 13.7835 24.2165 13 23.25 13H22.7001C22.8919 12.625 23 12.2001 23 11.75C23 10.2312 21.7688 9 20.25 9C19.2661 9 18.3755 9.41986 17.6806 10.2307C17.4248 10.5291 17.1977 10.8772 17 11.273C16.8023 10.8772 16.5752 10.5291 16.3194 10.2307C15.6245 9.41986 14.7339 9 13.75 9C12.2312 9 11 10.2312 11 11.75ZM17.9413 13H20.25C20.9404 13 21.5 12.4404 21.5 11.75C21.5 11.0596 20.9404 10.5 20.25 10.5C19.7339 10.5 19.2495 10.7051 18.8194 11.2068C18.4834 11.5989 18.1742 12.1824 17.9413 13ZM10.75 14.5C10.6119 14.5 10.5 14.6119 10.5 14.75V16.75C10.5 16.8881 10.6119 17 10.75 17H16.25V14.5H10.75ZM17.75 14.5V17H23.25C23.3881 17 23.5 16.8881 23.5 16.75V14.75C23.5 14.6119 23.3881 14.5 23.25 14.5H17.75ZM17.75 18.5H22.5V23.25C22.5 23.3881 22.3881 23.5 22.25 23.5H17.75V18.5ZM16.25 18.5V23.5H11.75C11.6119 23.5 11.5 23.3881 11.5 23.25V18.5H16.25Z" fill="#4399E9"/>
</svg>
