<svg width="14" height="14" viewBox="0 0 14 14" fill="none" xmlns="http://www.w3.org/2000/svg">
<path d="M0 11.5664C0 8.87696 0 6.18788 0 3.49843C0.0084001 3.47322 0.0211829 3.44874 0.0244698 3.42317C0.192837 2.15572 1.23043 1.17435 2.50286 1.08849C2.7377 1.07278 2.97436 1.0863 3.22527 1.0863C3.22527 0.901787 3.22454 0.743584 3.22527 0.585381C3.22746 0.24888 3.45207 0.00518226 3.76288 6.71525e-05C4.07843 -0.00468259 4.31509 0.243035 4.31801 0.583189C4.31948 0.741757 4.31838 0.89996 4.31838 1.06474C6.11052 1.06474 7.88842 1.06474 9.67874 1.06474C9.67874 0.902152 9.67801 0.748334 9.67874 0.59415C9.68056 0.249611 9.90773 0.00189398 10.2226 6.71525e-05C10.5385 -0.00212503 10.7693 0.244496 10.7715 0.587939C10.7726 0.746142 10.7715 0.904344 10.7715 1.07351C10.938 1.07351 11.0878 1.07424 11.2371 1.07351C12.8394 1.06364 13.9887 2.33219 13.9938 3.73884C14.0026 6.27265 14.0015 8.80681 13.9938 11.341C13.9902 12.566 13.1155 13.6406 11.9212 13.9216C11.7937 13.9515 11.6648 13.9745 11.5366 14.0008C8.51112 14.0008 5.48563 14.0008 2.4605 14.0008C2.4353 13.9928 2.41046 13.9804 2.38453 13.9771C1.23628 13.8317 0.324682 13.0103 0.0653747 11.885C0.0409048 11.7794 0.0215481 11.6727 0 11.5664ZM12.904 5.40271C8.95815 5.40271 5.02947 5.40271 1.09347 5.40271C1.09347 5.463 1.09347 5.51305 1.09347 5.56274C1.09347 7.44948 1.09311 9.33623 1.09347 11.223C1.09384 12.2062 1.7863 12.904 2.76838 12.9047C5.58826 12.9062 8.40813 12.9062 11.2284 12.9047C12.2112 12.9044 12.9036 12.2069 12.904 11.2237C12.9044 9.33696 12.904 7.45022 12.904 5.56347C12.904 5.51378 12.904 5.46373 12.904 5.40271ZM12.892 4.29383C13.0775 2.67088 11.9669 2.00482 10.7718 2.19043C10.7718 2.53058 10.7737 2.8722 10.7715 3.21381C10.7693 3.53972 10.5407 3.77684 10.231 3.7794C9.91504 3.78196 9.68202 3.54301 9.67947 3.21016C9.67728 2.90947 9.6791 2.6084 9.67874 2.30771C9.67874 2.26423 9.67362 2.22075 9.67107 2.17508C7.88331 2.17508 6.10833 2.17508 4.31875 2.17508C4.31875 2.23135 4.31875 2.27994 4.31875 2.3289C4.31875 2.6296 4.32167 2.93066 4.31765 3.23135C4.314 3.50757 4.12262 3.733 3.8677 3.77246C3.52256 3.8258 3.23075 3.58356 3.22673 3.23354C3.22272 2.88389 3.226 2.53387 3.226 2.18604C1.84145 1.99898 0.918897 2.85283 1.10991 4.29383C5.03385 4.29383 8.95962 4.29383 12.892 4.29383Z" fill="#4172ED"/>
<path d="M3.785 10.226C3.9625 10.226 4.13999 10.2227 4.31713 10.2268C4.61916 10.2337 4.85327 10.4705 4.85656 10.7668C4.85985 11.0605 4.6272 11.3101 4.32662 11.3166C3.95848 11.3247 3.5896 11.3243 3.2211 11.3166C2.92125 11.3108 2.68605 11.0616 2.68751 10.7693C2.68897 10.4745 2.92454 10.2341 3.22511 10.2268C3.41211 10.2224 3.59873 10.226 3.785 10.226Z" fill="#4172ED"/>
<path d="M10.2342 10.226C10.4117 10.226 10.5892 10.2231 10.7664 10.2267C11.0742 10.2333 11.3149 10.4773 11.3116 10.7758C11.3083 11.07 11.0735 11.3122 10.7715 11.3173C10.4077 11.3235 10.0436 11.3239 9.67983 11.3173C9.37743 11.3118 9.14441 11.0696 9.14259 10.7744C9.14076 10.4741 9.37925 10.2329 9.68823 10.2267C9.87011 10.2227 10.052 10.2256 10.2342 10.226Z" fill="#4172ED"/>
<path d="M10.2356 6.99931C10.4131 6.99931 10.5906 6.99603 10.7677 7.00004C11.069 7.00699 11.3049 7.24411 11.3097 7.53896C11.3144 7.83673 11.0748 8.08591 10.7666 8.09102C10.4072 8.09687 10.0478 8.09614 9.68846 8.09139C9.37839 8.08737 9.14026 7.84477 9.14063 7.54517C9.14099 7.24447 9.37985 7.00552 9.68919 6.99968C9.87144 6.99676 10.0537 6.99931 10.2356 6.99931Z" fill="#4172ED"/>
<path d="M3.77666 8.09309C3.59916 8.09309 3.42166 8.09601 3.24453 8.09272C2.92788 8.08688 2.68282 7.84208 2.68757 7.54029C2.69195 7.2407 2.933 7.00357 3.24307 7.00065C3.5977 6.99736 3.9527 6.997 4.30769 7.00065C4.6174 7.00394 4.85626 7.24471 4.85699 7.54541C4.85772 7.84537 4.61959 8.08542 4.30952 8.09236C4.13165 8.09638 3.95416 8.09309 3.77666 8.09309Z" fill="#4172ED"/>
<path d="M7.0011 6.99915C7.1786 6.99915 7.35609 6.99623 7.53323 6.99988C7.84293 7.0061 8.0796 7.24614 8.07814 7.54793C8.07667 7.84461 7.84512 8.08575 7.54199 8.09087C7.17823 8.09708 6.8141 8.09671 6.45034 8.09087C6.14831 8.08612 5.91347 7.84425 5.91018 7.54976C5.90726 7.25089 6.14721 7.0061 6.45509 6.99988C6.63697 6.99623 6.81922 6.99915 7.0011 6.99915Z" fill="#4172ED"/>
<path d="M6.98615 11.3188C6.8134 11.3188 6.64028 11.3217 6.46753 11.3184C6.15089 11.3126 5.90619 11.0678 5.91021 10.7657C5.91422 10.465 6.15308 10.2293 6.46498 10.2264C6.81961 10.2227 7.1746 10.2227 7.5296 10.2264C7.84113 10.2297 8.07706 10.4679 8.07816 10.77C8.07889 11.0711 7.84295 11.3104 7.53215 11.3181C7.35027 11.3221 7.16839 11.3188 6.98615 11.3188Z" fill="#4172ED"/>
</svg>
