<svg width="34" height="34" viewBox="0 0 34 34" fill="none" xmlns="http://www.w3.org/2000/svg">
<rect width="34" height="34" rx="6" fill="#ABE78F" fill-opacity="0.2"/>
<path fill-rule="evenodd" clip-rule="evenodd" d="M11.5 12.5C11.5 12.367 11.5581 12.1821 11.7819 11.9493C12.0091 11.7129 12.3739 11.4658 12.8826 11.2419C13.8979 10.7952 15.353 10.5 17 10.5C18.647 10.5 20.1021 10.7952 21.1174 11.2419C21.6261 11.4658 21.9909 11.7129 22.2182 11.9493C22.4419 12.1821 22.5 12.367 22.5 12.5C22.5 12.633 22.4419 12.8179 22.2182 13.0507C21.9909 13.2871 21.6261 13.5342 21.1174 13.7581C20.1021 14.2048 18.647 14.5 17 14.5C15.353 14.5 13.8979 14.2048 12.8826 13.7581C12.3739 13.5342 12.0091 13.2871 11.7819 13.0507C11.5581 12.8179 11.5 12.633 11.5 12.5ZM10 12.5C10 11.8737 10.2916 11.3351 10.7005 10.9098C11.1057 10.4882 11.6562 10.1428 12.2785 9.86897C13.5253 9.32039 15.1952 9 17 9C18.8048 9 20.4747 9.32039 21.7215 9.86897C22.3438 10.1428 22.8943 10.4882 23.2995 10.9098C23.7084 11.3351 24 11.8737 24 12.5V21.5C24 22.1264 23.7084 22.6649 23.2995 23.0902C22.8943 23.5118 22.3438 23.8572 21.7215 24.131C20.4747 24.6796 18.8048 25 17 25C15.1952 25 13.5253 24.6796 12.2785 24.131C11.6562 23.8572 11.1057 23.5118 10.7005 23.0902C10.2916 22.6649 10 22.1264 10 21.5V12.5ZM11.5 17V14.7245C11.7412 14.8743 12.0028 15.0097 12.2785 15.131C13.5253 15.6796 15.1952 16 17 16C18.8048 16 20.4747 15.6796 21.7215 15.131C21.9972 15.0097 22.2589 14.8743 22.5 14.7245V17C22.5 17.133 22.4419 17.3179 22.2182 17.5507C21.9909 17.7871 21.6261 18.0342 21.1174 18.2581C20.1021 18.7048 18.647 19 17 19C15.353 19 13.8979 18.7048 12.8826 18.2581C12.3739 18.0342 12.0091 17.7871 11.7819 17.5507C11.5581 17.3179 11.5 17.133 11.5 17ZM11.5 19.2245V21.5C11.5 21.633 11.5581 21.8179 11.7819 22.0507C12.0091 22.2871 12.3739 22.5342 12.8826 22.7581C13.8979 23.2048 15.353 23.5 17 23.5C18.647 23.5 20.1021 23.2048 21.1174 22.7581C21.6261 22.5342 21.9909 22.2871 22.2182 22.0507C22.4419 21.8179 22.5 21.633 22.5 21.5V19.2245C22.2589 19.3743 21.9972 19.5097 21.7215 19.631C20.4747 20.1796 18.8048 20.5 17 20.5C15.1952 20.5 13.5253 20.1796 12.2785 19.631C12.0028 19.5097 11.7412 19.3743 11.5 19.2245Z" fill="#4EB81C"/>
</svg>
