<svg width="40" height="40" viewBox="0 0 40 40" fill="none" xmlns="http://www.w3.org/2000/svg">
<rect width="40" height="40" rx="6" fill="#FFD467" fill-opacity="0.15"/>
<g clip-path="url(#clip0_1651_37943)">
<path fill-rule="evenodd" clip-rule="evenodd" d="M12.7205 14.0441C12.7205 13.868 12.7975 13.6233 13.0936 13.3153C13.3944 13.0023 13.8772 12.6753 14.5505 12.379C15.8943 11.7878 17.8201 11.397 19.9999 11.397C22.1797 11.397 24.1057 11.7878 25.4494 12.379C26.1227 12.6753 26.6055 13.0023 26.9064 13.3153C27.2024 13.6233 27.2793 13.868 27.2793 14.0441C27.2793 14.2202 27.2024 14.4649 26.9064 14.7729C26.6055 15.0858 26.1227 15.4129 25.4494 15.7092C24.1057 16.3004 22.1797 16.6912 19.9999 16.6912C17.8201 16.6912 15.8943 16.3004 14.5505 15.7092C13.8772 15.4129 13.3944 15.0858 13.0936 14.7729C12.7975 14.4649 12.7205 14.2202 12.7205 14.0441ZM10.7352 14.0441C10.7352 13.2151 11.1212 12.5023 11.6623 11.9394C12.1987 11.3815 12.9273 10.9243 13.7509 10.5619C15.4011 9.83579 17.6112 9.41174 19.9999 9.41174C22.3887 9.41174 24.5988 9.83579 26.249 10.5619C27.0726 10.9243 27.8012 11.3815 28.3375 11.9394C28.8787 12.5023 29.2646 13.2151 29.2646 14.0441V25.9559C29.2646 26.7849 28.8787 27.4976 28.3375 28.0605C27.8012 28.6185 27.0726 29.0757 26.249 29.4381C24.5988 30.1642 22.3887 30.5882 19.9999 30.5882C17.6112 30.5882 15.4011 30.1642 13.7509 29.4381C12.9273 29.0757 12.1987 28.6185 11.6623 28.0605C11.1212 27.4976 10.7352 26.7849 10.7352 25.9559V14.0441ZM12.7205 20V16.9883C13.0397 17.1866 13.386 17.3658 13.7509 17.5263C15.4011 18.2524 17.6112 18.6764 19.9999 18.6764C22.3887 18.6764 24.5988 18.2524 26.249 17.5263C26.6139 17.3658 26.9602 17.1866 27.2793 16.9883V20C27.2793 20.1761 27.2024 20.4208 26.9064 20.7288C26.6055 21.0417 26.1227 21.3688 25.4494 21.6651C24.1057 22.2563 22.1797 22.647 19.9999 22.647C17.8201 22.647 15.8943 22.2563 14.5505 21.6651C13.8772 21.3688 13.3944 21.0417 13.0936 20.7288C12.7975 20.4208 12.7205 20.1761 12.7205 20ZM12.7205 22.9442V25.9559C12.7205 26.1319 12.7975 26.3766 13.0936 26.6847C13.3944 26.9976 13.8772 27.3247 14.5505 27.621C15.8943 28.2122 17.8201 28.6029 19.9999 28.6029C22.1797 28.6029 24.1057 28.2122 25.4494 27.621C26.1227 27.3247 26.6055 26.9976 26.9064 26.6847C27.2024 26.3766 27.2793 26.1319 27.2793 25.9559V22.9442C26.9602 23.1424 26.6139 23.3216 26.249 23.4822C24.5988 24.2083 22.3887 24.6323 19.9999 24.6323C17.6112 24.6323 15.4011 24.2083 13.7509 23.4822C13.386 23.3216 13.0397 23.1424 12.7205 22.9442Z" fill="#F9C227"/>
</g>
<defs>
<clipPath id="clip0_1651_37943">
<rect width="21.1765" height="21.1765" fill="white" transform="translate(9.41174 9.41174)"/>
</clipPath>
</defs>
</svg>
