<svg width="40" height="40" viewBox="0 0 40 40" fill="none" xmlns="http://www.w3.org/2000/svg">
<rect width="40" height="40" rx="6" fill="#4399E9" fill-opacity="0.09"/>
<g clip-path="url(#clip0_1658_39431)">
<path fill-rule="evenodd" clip-rule="evenodd" d="M12.353 12.647C12.353 12.1597 11.9579 11.7646 11.4706 11.7646C10.9833 11.7646 10.5883 12.1597 10.5883 12.647V27.3529C10.5883 27.8402 10.9833 28.2352 11.4706 28.2352H28.5294C29.0167 28.2352 29.4118 27.8402 29.4118 27.3529C29.4118 26.8656 29.0167 26.4705 28.5294 26.4705H12.353V12.647ZM29.1533 15.6239C29.4979 15.2793 29.4979 14.7206 29.1533 14.376C28.8087 14.0314 28.2501 14.0314 27.9056 14.376L22.353 19.9286L19.4475 17.0231C19.1029 16.6785 18.5442 16.6785 18.1996 17.0231L14.3761 20.8466C14.0315 21.1912 14.0315 21.7499 14.3761 22.0944C14.7207 22.439 15.2794 22.439 15.6239 22.0944L18.8236 18.8948L21.729 21.8003C21.8945 21.9658 22.119 22.0588 22.353 22.0588C22.587 22.0588 22.8114 21.9658 22.9768 21.8003L29.1533 15.6239Z" fill="#4172ED"/>
</g>
<defs>
<clipPath id="clip0_1658_39431">
<rect width="18.8235" height="18.8235" fill="white" transform="translate(10.5883 10.5881)"/>
</clipPath>
</defs>
</svg>
