<svg width="20" height="20" viewBox="0 0 20 20" fill="none" xmlns="http://www.w3.org/2000/svg">
<g clip-path="url(#clip0_1269_39256)">
<path d="M4 4.66667H0.666667C0.3 4.66667 0 4.36667 0 4V2.33333C0 1.04667 1.04667 0 2.33333 0C3.62 0 4.66667 1.04667 4.66667 2.33333V4C4.66667 4.36667 4.36667 4.66667 4 4.66667ZM1.33333 3.33333H3.33333V2.33333C3.33333 1.78 2.88667 1.33333 2.33333 1.33333C1.78 1.33333 1.33333 1.78 1.33333 2.33333V3.33333Z" fill="#4172ED"/>
<path d="M16 17.3333C15.6333 17.3333 15.3333 17.0333 15.3333 16.6667V2.33333C15.3333 1.78 14.8867 1.33333 14.3333 1.33333H2.66667C2.3 1.33333 2 1.03333 2 0.666667C2 0.3 2.3 0 2.66667 0H14.3333C15.62 0 16.6667 1.04667 16.6667 2.33333V16.6667C16.6667 17.0333 16.3667 17.3333 16 17.3333Z" fill="#4172ED"/>
<path d="M17.6673 19.9997H6.00065C5.96065 19.9997 5.92065 19.9997 5.88732 19.993C5.81398 19.9997 5.74065 19.9997 5.66732 19.9997C4.38065 19.9997 3.33398 18.953 3.33398 17.6663V3.99967C3.33398 3.63301 3.63398 3.33301 4.00065 3.33301C4.36732 3.33301 4.66732 3.63301 4.66732 3.99967V17.6663C4.66732 18.2197 5.11398 18.6663 5.66732 18.6663C6.22065 18.6663 6.66732 18.2197 6.66732 17.6663V16.6663C6.66732 16.2997 6.96732 15.9997 7.33398 15.9997H19.334C19.7006 15.9997 20.0007 16.2997 20.0007 16.6663V17.6663C20.0007 18.953 18.954 19.9997 17.6673 19.9997ZM7.77398 18.6663H17.6673C18.2206 18.6663 18.6673 18.2197 18.6673 17.6663V17.333H8.00065V17.6663C8.00065 18.0263 7.92065 18.3597 7.77398 18.6663Z" fill="#4172ED"/>
<path d="M13.3333 4.66634H6.66667C6.3 4.66634 6 4.36634 6 3.99967C6 3.63301 6.3 3.33301 6.66667 3.33301H13.3333C13.7 3.33301 14 3.63301 14 3.99967C14 4.36634 13.7 4.66634 13.3333 4.66634Z" fill="#4172ED"/>
<path d="M13.3333 7.33284H6.66667C6.3 7.33284 6 7.03284 6 6.66618C6 6.29951 6.3 5.99951 6.66667 5.99951H13.3333C13.7 5.99951 14 6.29951 14 6.66618C14 7.03284 13.7 7.33284 13.3333 7.33284Z" fill="#4172ED"/>
<path d="M13.3333 9.99935H6.66667C6.3 9.99935 6 9.69935 6 9.33268C6 8.96602 6.3 8.66602 6.66667 8.66602H13.3333C13.7 8.66602 14 8.96602 14 9.33268C14 9.69935 13.7 9.99935 13.3333 9.99935Z" fill="#4172ED"/>
<path d="M12 15.334C10.9 15.334 10 14.434 10 13.334C10 12.234 10.9 11.334 12 11.334C13.1 11.334 14 12.234 14 13.334C14 14.434 13.1 15.334 12 15.334ZM12 12.6673C11.6333 12.6673 11.3333 12.9673 11.3333 13.334C11.3333 13.7007 11.6333 14.0007 12 14.0007C12.3667 14.0007 12.6667 13.7007 12.6667 13.334C12.6667 12.9673 12.3667 12.6673 12 12.6673Z" fill="#4172ED"/>
<path d="M8 12.6673H6.66667C6.3 12.6673 6 12.3673 6 12.0007C6 11.634 6.3 11.334 6.66667 11.334H8C8.36667 11.334 8.66667 11.634 8.66667 12.0007C8.66667 12.3673 8.36667 12.6673 8 12.6673Z" fill="#4172ED"/>
</g>
<defs>
<clipPath id="clip0_1269_39256">
<rect width="20" height="20" fill="white"/>
</clipPath>
</defs>
</svg>
