<svg width="16" height="16" viewBox="0 0 16 16" fill="none" xmlns="http://www.w3.org/2000/svg">
<path fill-rule="evenodd" clip-rule="evenodd" d="M4.20632 1.8125C3.70081 1.8125 3.29102 2.2223 3.29102 2.72781C3.29102 3.23332 3.70081 3.64311 4.20632 3.64311C4.71183 3.64311 5.12163 3.23332 5.12163 2.72781C5.12163 2.2223 4.71183 1.8125 4.20632 1.8125ZM2.16602 2.72781C2.16602 1.60098 3.07949 0.6875 4.20632 0.6875C5.33315 0.6875 6.24663 1.60098 6.24663 2.72781C6.24663 3.85464 5.33315 4.76811 4.20632 4.76811C3.07949 4.76811 2.16602 3.85464 2.16602 2.72781Z" fill="#4172ED"/>
<path fill-rule="evenodd" clip-rule="evenodd" d="M4.20565 4.14029C3.34529 4.09189 2.49891 4.37785 1.8439 4.93929C1.17926 5.50898 0.764774 6.31679 0.68961 7.18894C0.662936 7.49845 0.892222 7.77099 1.20173 7.79766C1.51125 7.82434 1.78378 7.59505 1.81046 7.28554C1.86031 6.70708 2.13522 6.1713 2.57604 5.79345C3.01687 5.4156 3.58839 5.22587 4.16767 5.26507C4.19296 5.26678 4.21834 5.26678 4.24363 5.26507C4.82291 5.22587 5.39443 5.4156 5.83525 5.79345C6.27608 6.1713 6.55098 6.70708 6.60084 7.28554C6.62751 7.59505 6.90005 7.82434 7.20956 7.79766C7.51907 7.77099 7.74836 7.49845 7.72168 7.18894C7.64652 6.31679 7.23204 5.50898 6.56739 4.93929C5.91239 4.37785 5.066 4.09189 4.20565 4.14029Z" fill="#4172ED"/>
<path fill-rule="evenodd" clip-rule="evenodd" d="M4.20632 9.23535C3.70081 9.23535 3.29102 9.64515 3.29102 10.1507C3.29102 10.6562 3.70081 11.066 4.20632 11.066C4.71183 11.066 5.12163 10.6562 5.12163 10.1507C5.12163 9.64515 4.71183 9.23535 4.20632 9.23535ZM2.16602 10.1507C2.16602 9.02383 3.07949 8.11035 4.20632 8.11035C5.33315 8.11035 6.24663 9.02383 6.24663 10.1507C6.24663 11.2775 5.33315 12.191 4.20632 12.191C3.07949 12.191 2.16602 11.2775 2.16602 10.1507Z" fill="#4172ED"/>
<path fill-rule="evenodd" clip-rule="evenodd" d="M4.20565 11.5631C3.34529 11.5147 2.49891 11.8007 1.8439 12.3621C1.17926 12.9318 0.764774 13.7396 0.68961 14.6118C0.662936 14.9213 0.892222 15.1938 1.20173 15.2205C1.51125 15.2472 1.78378 15.0179 1.81046 14.7084C1.86031 14.1299 2.13522 13.5942 2.57604 13.2163C3.01687 12.8385 3.58839 12.6487 4.16767 12.6879C4.19296 12.6896 4.21834 12.6896 4.24363 12.6879C4.82291 12.6487 5.39443 12.8385 5.83525 13.2163C6.27608 13.5942 6.55098 14.1299 6.60084 14.7084C6.62751 15.0179 6.90005 15.2472 7.20956 15.2205C7.51907 15.1938 7.74836 14.9213 7.72168 14.6118C7.64652 13.7396 7.23204 12.9318 6.56739 12.3621C5.91239 11.8007 5.066 11.5147 4.20565 11.5631Z" fill="#4172ED"/>
<path fill-rule="evenodd" clip-rule="evenodd" d="M11.9075 1.8125C11.402 1.8125 10.9922 2.2223 10.9922 2.72781C10.9922 3.23332 11.402 3.64311 11.9075 3.64311C12.413 3.64311 12.8228 3.23332 12.8228 2.72781C12.8228 2.2223 12.413 1.8125 11.9075 1.8125ZM9.86719 2.72781C9.86719 1.60098 10.7807 0.6875 11.9075 0.6875C13.0343 0.6875 13.9478 1.60098 13.9478 2.72781C13.9478 3.85464 13.0343 4.76811 11.9075 4.76811C10.7807 4.76811 9.86719 3.85464 9.86719 2.72781Z" fill="#4172ED"/>
<path fill-rule="evenodd" clip-rule="evenodd" d="M11.9068 4.14029C11.0465 4.09189 10.2001 4.37785 9.54507 4.93929C8.88043 5.50898 8.46595 6.31679 8.39078 7.18894C8.36411 7.49846 8.59339 7.77099 8.90291 7.79766C9.21242 7.82434 9.48495 7.59505 9.51163 7.28554C9.56148 6.70708 9.83639 6.1713 10.2772 5.79345C10.718 5.4156 11.2896 5.22587 11.8688 5.26507C11.8941 5.26678 11.9195 5.26678 11.9448 5.26507C12.5241 5.22587 13.0956 5.4156 13.5364 5.79345C13.9772 6.1713 14.2522 6.70708 14.302 7.28554C14.3287 7.59505 14.6012 7.82434 14.9107 7.79766C15.2202 7.77099 15.4495 7.49846 15.4229 7.18894C15.3477 6.31679 14.9332 5.50898 14.2686 4.93929C13.6136 4.37785 12.7672 4.09189 11.9068 4.14029ZM11.9068 10.441C12.2175 10.441 12.4693 10.6929 12.4693 11.0035V12.13H13.5957C13.9064 12.13 14.1582 12.3818 14.1582 12.6925C14.1582 13.0031 13.9064 13.255 13.5957 13.255H12.4693V14.3814C12.4693 14.692 12.2175 14.9439 11.9068 14.9439C11.5962 14.9439 11.3443 14.692 11.3443 14.3814V13.255H10.2179C9.90724 13.255 9.6554 13.0031 9.6554 12.6925C9.6554 12.3818 9.90724 12.13 10.2179 12.13H11.3443V11.0035C11.3443 10.6929 11.5962 10.441 11.9068 10.441Z" fill="#4172ED"/>
</svg>
