<svg width="40" height="44" viewBox="0 0 40 44" fill="none" xmlns="http://www.w3.org/2000/svg">
<path d="M26.9472 14.4135C26.4619 14.3126 25.9674 14.2632 25.4717 14.2662C24.4426 14.2635 23.4245 14.4785 22.4842 14.8971C21.5439 15.3158 20.7025 15.9286 20.0151 16.6955C19.2966 15.8945 18.4115 15.2608 17.4221 14.839C16.4327 14.4172 15.363 14.2176 14.2883 14.254C13.2136 14.2905 12.1599 14.5623 11.2013 15.0502C10.2427 15.5381 9.40252 16.2304 8.7398 17.0782C8.07709 17.9261 7.60793 18.9091 7.36533 19.958C7.12272 21.0068 7.11256 22.0962 7.33555 23.1494C7.55854 24.2027 8.00928 25.1942 8.65606 26.0543C9.30285 26.9145 10.13 27.6223 11.0793 28.1281V35.707C9.76827 35.3845 8.5102 34.8756 7.34345 34.1957C5.15541 32.9283 3.33873 31.1071 2.07566 28.9148C0.812592 26.7225 0.147537 24.2362 0.147217 21.7053V0.0944824L7.34722 9.24129C10.6355 7.33981 14.5411 6.81646 18.213 7.78527C21.885 8.75407 25.0257 11.1365 26.951 14.4135H26.9472Z" fill="#2C71F6"/>
<path d="M39.8717 21.7203C39.8704 24.0869 39.2875 26.4169 38.1744 28.5047C37.0613 30.5925 35.4522 32.374 33.4891 33.6922C31.5259 35.0104 29.2689 35.8247 26.9172 36.0634C24.5655 36.3021 22.1912 35.9578 20.0038 35.0608C19.4142 34.8166 18.8418 34.5326 18.2906 34.2107L16.9283 35.9411L11.0944 43.3424V28.128C12.1599 28.7029 13.3518 29.0029 14.5623 29.0007C15.5925 29.0022 16.6116 28.787 17.5535 28.3692C18.4954 27.9514 19.3392 27.3402 20.0302 26.5752C20.8105 27.4382 21.784 28.1038 22.8708 28.5174C23.9577 28.9311 25.1269 29.0809 26.2828 28.9548C27.4386 28.8287 28.5482 28.4301 29.5205 27.7918C30.4928 27.1534 31.3002 26.2935 31.8765 25.2824C32.4528 24.2714 32.7816 23.138 32.8359 21.9752C32.8902 20.8123 32.6686 19.6532 32.1891 18.5927C31.7096 17.5322 30.9859 16.6005 30.0774 15.8741C29.1689 15.1476 28.1013 14.6471 26.9623 14.4135C25.3642 11.702 22.9265 9.58632 20.0189 8.38737C22.2058 7.49263 24.5789 7.14975 26.9293 7.38891C29.2796 7.62806 31.5353 8.44192 33.4977 9.75887C35.4601 11.0758 37.0692 12.8555 38.1833 14.9413C39.2974 17.027 39.8824 19.355 39.8868 21.7203H39.8717Z" fill="#2866DD"/>
<path d="M25.8377 25.0073C25.7359 25.0073 25.6302 25.0073 25.5283 25.0073C22.9962 24.8562 21.3774 22.8311 21.317 22.7404C21.1168 22.4899 21.0243 22.1701 21.0596 21.8512C21.095 21.5324 21.2555 21.2407 21.5057 21.0403C21.7559 20.8399 22.0753 20.7472 22.3938 20.7826C22.7123 20.818 23.0036 20.9787 23.2038 21.2292C23.234 21.2632 24.2566 22.4948 25.6793 22.5742C26.6226 22.6271 27.6378 22.1359 28.6491 21.1234C28.8758 20.8964 29.1832 20.7689 29.5038 20.7689C29.8244 20.7689 30.1318 20.8964 30.3585 21.1234C30.5852 21.3503 30.7125 21.6582 30.7125 21.9791C30.7125 22.3001 30.5852 22.6079 30.3585 22.8349C28.951 24.2819 27.4264 25.0073 25.8377 25.0073Z" fill="#007FFF"/>
<path d="M14.649 25.0073C14.5471 25.0073 14.4415 25.0073 14.3396 25.0073C11.8075 24.8562 10.1886 22.8311 10.1283 22.7404C9.92811 22.4899 9.83553 22.1701 9.87092 21.8512C9.9063 21.5324 10.0667 21.2407 10.3169 21.0403C10.5672 20.8399 10.8866 20.7472 11.2051 20.7826C11.5235 20.818 11.8149 20.9787 12.0151 21.2292C12.0453 21.2632 13.0679 22.4948 14.4905 22.5742C15.4377 22.6271 16.449 22.1359 17.4603 21.1234C17.687 20.8964 17.9945 20.7689 18.3151 20.7689C18.6356 20.7689 18.9431 20.8964 19.1698 21.1234C19.3965 21.3503 19.5238 21.6582 19.5238 21.9791C19.5238 22.3001 19.3965 22.6079 19.1698 22.8349C17.7471 24.2819 16.2226 25.0073 14.649 25.0073Z" fill="#007FFF"/>
</svg>
