<svg width="18" height="18" viewBox="0 0 18 18" fill="none" xmlns="http://www.w3.org/2000/svg">
<path d="M13.4958 18.0006C10.4968 18.0006 7.49816 18.0006 4.49908 18.0006C4.47795 17.9912 4.45777 17.9785 4.43523 17.9734C3.60894 17.7864 3.13006 17.1906 3.12865 16.3445C3.12771 15.6362 3.12865 14.9279 3.12818 14.2196C3.12818 14.1582 3.12818 14.0968 3.12818 14.0279C2.94414 14.0279 2.7864 14.0288 2.62865 14.0279C1.42911 14.0181 0.395307 13.2179 0.0863854 12.061C0.0549298 11.9438 0.0286386 11.8257 0 11.7076C0 10.0904 0 8.47318 0 6.85598C0.0112677 6.8241 0.0272302 6.7927 0.032864 6.75988C0.219719 5.60769 1.12019 4.72034 2.27701 4.56612C2.55212 4.52956 2.83335 4.53518 3.12771 4.52112C3.12771 4.4555 3.12771 4.39221 3.12771 4.3294C3.12771 3.75612 3.12396 3.18283 3.12865 2.60955C3.13804 1.42079 3.95917 0.37594 5.11082 0.0810943C5.22256 0.0525003 5.33524 0.0271877 5.44697 0C7.81318 0 10.1794 0 12.5456 0C12.5719 0.0103126 12.5968 0.0262502 12.624 0.0309377C13.9451 0.252189 14.8602 1.32704 14.8644 2.6672C14.8663 3.20627 14.8649 3.74487 14.8649 4.28393C14.8649 4.36362 14.8649 4.44331 14.8649 4.53612C15.0672 4.53612 15.248 4.53331 15.4282 4.53659C16.8038 4.5605 17.9729 5.71175 17.9879 7.08801C18.0034 8.5524 18.0034 10.0172 17.9874 11.4816C17.9738 12.7379 16.9813 13.8334 15.7348 13.9941C15.4531 14.0307 15.1663 14.0274 14.8649 14.0434C14.8649 14.1076 14.8649 14.1704 14.8649 14.2337C14.8644 14.972 14.8705 15.7098 14.862 16.4481C14.8545 17.109 14.4334 17.6856 13.8118 17.9073C13.7095 17.9443 13.6019 17.9696 13.4958 18.0006ZM3.1249 11.2149C3.00518 11.2149 2.90095 11.2191 2.7972 11.214C2.52302 11.2004 2.30658 10.9918 2.28686 10.726C2.26715 10.4687 2.44461 10.2305 2.70471 10.1738C2.77231 10.1593 2.84414 10.1612 2.9141 10.1612C6.97186 10.1607 11.0301 10.1607 15.0879 10.1607C15.1231 10.1607 15.1583 10.1597 15.193 10.1612C15.4822 10.1757 15.7048 10.3998 15.709 10.6801C15.7132 10.9674 15.4879 11.2013 15.1907 11.214C15.0874 11.2182 14.9836 11.2149 14.878 11.2149C14.878 11.8112 14.878 12.3868 14.878 12.9732C15.0179 12.9732 15.1461 12.9732 15.2742 12.9732C16.2649 12.9713 16.9386 12.2982 16.9395 11.3068C16.9405 9.95959 16.9405 8.61193 16.9395 7.26473C16.939 6.2616 16.2677 5.59082 15.2653 5.59035C13.8893 5.58988 12.5132 5.59035 11.1371 5.59035C8.32069 5.59035 5.50425 5.58941 2.68734 5.59082C1.77419 5.59128 1.06385 6.26348 1.05822 7.14895C1.0493 8.57255 1.04414 9.99615 1.0601 11.4193C1.0709 12.3798 1.90142 13.1621 3.1249 12.9446C3.1249 12.3779 3.1249 11.8102 3.1249 11.2149ZM13.8123 11.2271C10.5916 11.2271 7.39252 11.2271 4.18312 11.2271C4.18312 11.2965 4.18312 11.3541 4.18312 11.4123C4.18312 13.0463 4.18312 14.6804 4.18312 16.3145C4.18312 16.7481 4.38171 16.9459 4.81645 16.9459C7.60332 16.9459 10.3902 16.9459 13.1771 16.9459C13.6132 16.9459 13.8123 16.749 13.8123 16.3164C13.8127 14.6823 13.8123 13.0482 13.8123 11.4141C13.8123 11.356 13.8123 11.2979 13.8123 11.2271ZM13.7972 4.52722C13.8033 4.50378 13.8109 4.48737 13.8109 4.47096C13.8109 3.83252 13.824 3.19408 13.8062 2.55611C13.7836 1.74329 13.0982 1.0636 12.2813 1.05985C10.0921 1.05001 7.90285 1.05094 5.71411 1.05938C4.97608 1.06219 4.32819 1.61954 4.22021 2.34845C4.16903 2.69299 4.18922 3.0483 4.18406 3.39893C4.17889 3.77205 4.18312 4.14518 4.18312 4.52675C7.39816 4.52722 10.5968 4.52722 13.7972 4.52722Z" fill="#4172ED"/>
<path d="M3.65474 6.78546C3.91767 6.78546 4.1806 6.78452 4.44353 6.78593C4.78486 6.78781 5.02244 7.00157 5.02525 7.30815C5.02807 7.61568 4.79097 7.83882 4.45339 7.84022C3.92143 7.8421 3.38994 7.8421 2.85798 7.84022C2.52087 7.83882 2.28283 7.61614 2.28517 7.30956C2.28752 7.00391 2.52556 6.78828 2.86549 6.7864C3.12842 6.78453 3.39135 6.78546 3.65474 6.78546Z" fill="#4172ED"/>
<path d="M8.98863 13.4656C8.54447 13.4656 8.09984 13.4666 7.65568 13.4652C7.30354 13.4642 7.06315 13.2458 7.06644 12.9326C7.06926 12.627 7.30777 12.4113 7.64911 12.4109C8.54963 12.4099 9.45016 12.4099 10.3507 12.4109C10.692 12.4113 10.9296 12.6274 10.9315 12.934C10.9334 13.2415 10.6962 13.4633 10.3577 13.4647C9.90089 13.467 9.44453 13.4656 8.98863 13.4656Z" fill="#4172ED"/>
<path d="M8.99752 14.6605C9.44778 14.6605 9.89805 14.6595 10.3483 14.6609C10.6906 14.6619 10.9277 14.8761 10.931 15.1827C10.9343 15.4958 10.6939 15.7147 10.3413 15.7152C9.44684 15.7161 8.55195 15.7161 7.65753 15.7152C7.30446 15.7147 7.06454 15.4977 7.06642 15.1845C7.0683 14.8728 7.30869 14.6619 7.66458 14.6609C8.10873 14.66 8.55289 14.6605 8.99752 14.6605Z" fill="#4172ED"/>
</svg>
