<svg width="34" height="34" viewBox="0 0 34 34" fill="none" xmlns="http://www.w3.org/2000/svg">
<rect opacity="0.57" width="34" height="34" rx="6" fill="#BBEAA8"/>
<path fill-rule="evenodd" clip-rule="evenodd" d="M17.8338 8.06609C16.4943 7.91345 15.5 9.04788 15.5 10.249V10.7496C15.5 12.0779 14.8533 12.8727 14.1825 13.3629C13.8542 13.6027 13.5222 13.7663 13.2639 13.8714C12.9609 13.3502 12.3963 12.9998 11.75 12.9998H10.75C9.7835 12.9998 9 13.7833 9 14.7498V22.2498C9 23.2163 9.7835 23.9998 10.75 23.9998H11.75C12.5247 23.9998 13.1818 23.4964 13.4121 22.7988C13.9366 22.8737 14.4794 23.0275 15.1374 23.2138L15.1375 23.2139C15.2891 23.2568 15.4468 23.3015 15.6118 23.3473C16.7657 23.6678 18.1526 23.9996 20 23.9996C21.7057 23.9996 22.9696 23.8473 23.7215 22.8604C24.0746 22.3971 24.2585 21.8184 24.3903 21.1883C24.5076 20.6274 24.5981 19.9446 24.7028 19.1548L24.7434 18.8488C24.9925 16.9804 25.0084 15.5308 24.5548 14.533C24.3108 13.9964 23.9328 13.5904 23.4183 13.3329C22.924 13.0855 22.3531 12.9996 21.75 12.9996H20.3277L20.3427 12.8873V12.8873C20.4124 12.3691 20.5 11.7179 20.5 11.2496C20.5 10.3281 20.3487 9.53102 19.8444 8.95021C19.3331 8.36121 18.5972 8.15309 17.8338 8.06609ZM13.5 21.2985C14.2053 21.387 14.8906 21.5826 15.5721 21.7772H15.5721C15.7193 21.8192 15.8662 21.8612 16.0132 21.902C17.1093 22.2065 18.3474 22.4996 20 22.4996C21.7942 22.4996 22.2803 22.277 22.5284 21.9514C22.6753 21.7585 22.8039 21.4465 22.9221 20.8813C23.0272 20.3789 23.1096 19.7572 23.2166 18.9513L23.2565 18.6505C23.5075 16.7689 23.446 15.7185 23.1893 15.1538C23.078 14.9091 22.9348 14.7683 22.7469 14.6742C22.5388 14.5701 22.2263 14.4996 21.75 14.4996H19.9996C19.3144 14.4996 18.705 13.9227 18.7944 13.1637C18.817 12.9724 18.8435 12.7747 18.8699 12.5783C18.9354 12.0898 19 11.6086 19 11.2496C19 10.4411 18.8556 10.0993 18.7118 9.9336C18.575 9.77611 18.3104 9.63011 17.6639 9.55644C17.3572 9.52149 17 9.79346 17 10.2491V10.7496C17 12.6714 16.0217 13.8766 15.0675 14.5739C14.5974 14.9174 14.1316 15.1408 13.7848 15.2786C13.6788 15.3208 13.5829 15.3553 13.5 15.3832V21.2985ZM11.75 14.4998C11.8881 14.4998 12 14.6117 12 14.7498V21.9996V22.2498C12 22.3878 11.8881 22.4998 11.75 22.4998H10.75C10.6119 22.4998 10.5 22.3878 10.5 22.2498V14.7498C10.5 14.6117 10.6119 14.4998 10.75 14.4998H11.75Z" fill="#4EB81C"/>
</svg>
