<svg width="25" height="24" viewBox="0 0 25 24" fill="none" xmlns="http://www.w3.org/2000/svg">
<circle cx="12.875" cy="12" r="12" fill="#F4EAFF"/>
<path fill-rule="evenodd" clip-rule="evenodd" d="M10.4253 18.6666C10.1507 18.6666 9.89 18.6453 9.64467 18.6033L9.49933 18.5759C7.91867 18.2473 7 17.0366 7 15.1939V8.80592C7 8.58325 7.01333 8.36992 7.04 8.16592C7.27267 6.37592 8.50267 5.33325 10.4253 5.33325H15.5753C17.706 5.33325 18.98 6.61325 19 8.75459V8.80592V15.1939C19 17.3653 17.7227 18.6666 15.5753 18.6666H10.4253ZM10.4253 6.30457C8.788 6.30457 7.958 7.14657 7.958 8.80591V15.1939C7.958 16.8532 8.788 17.6952 10.4253 17.6952H15.5693C17.206 17.6952 18.0307 16.8532 18.0307 15.1939V8.80591C18.0307 7.14657 17.206 6.30457 15.5693 6.30457H10.4253ZM15.8707 14.8226C15.8707 14.5559 15.658 14.3399 15.3953 14.3399H10.588C10.3253 14.3399 10.112 14.5559 10.112 14.8226C10.112 15.0892 10.3253 15.3052 10.588 15.3052H15.3953C15.658 15.3052 15.8707 15.0892 15.8707 14.8226ZM15.3953 11.5139C15.5787 11.4939 15.758 11.5819 15.856 11.7399C15.954 11.8992 15.954 12.1006 15.856 12.2599C15.758 12.4179 15.5787 12.5059 15.3953 12.4859H10.588C10.344 12.4579 10.1593 12.2492 10.1593 11.9999C10.1593 11.7506 10.344 11.5412 10.588 11.5139H15.3953ZM12.8513 9.18059C12.8513 8.93125 12.6666 8.72192 12.4226 8.69459H10.594C10.3493 8.72192 10.1646 8.93125 10.1646 9.18059C10.1646 9.42925 10.3493 9.63859 10.594 9.66592H12.4226C12.6666 9.63859 12.8513 9.42925 12.8513 9.18059Z" fill="#9F4EF0"/>
</svg>
