<svg width="12" height="12" viewBox="0 0 12 12" fill="none" xmlns="http://www.w3.org/2000/svg">
<path fill-rule="evenodd" clip-rule="evenodd" d="M1.875 2.625C1.875 2.52522 1.9186 2.38655 2.08639 2.21201C2.25685 2.03468 2.53045 1.84933 2.91198 1.68146C3.67345 1.34642 4.76477 1.125 6 1.125C7.23523 1.125 8.32658 1.34642 9.08805 1.68146C9.46957 1.84933 9.74317 2.03468 9.91365 2.21201C10.0814 2.38655 10.125 2.52522 10.125 2.625C10.125 2.72478 10.0814 2.86346 9.91365 3.038C9.74317 3.21533 9.46957 3.40067 9.08805 3.56854C8.32658 3.90358 7.23523 4.125 6 4.125C4.76477 4.125 3.67345 3.90358 2.91198 3.56854C2.53045 3.40067 2.25685 3.21533 2.08639 3.038C1.9186 2.86346 1.875 2.72478 1.875 2.625ZM0.75 2.625C0.75 2.15524 0.96873 1.75133 1.27534 1.43236C1.57929 1.11618 1.99215 0.8571 2.4589 0.651727C3.39397 0.240295 4.64639 0 6 0C7.35361 0 8.60603 0.240295 9.54113 0.651727C10.0079 0.8571 10.4207 1.11618 10.7246 1.43236C11.0313 1.75133 11.25 2.15524 11.25 2.625V9.375C11.25 9.8448 11.0313 10.2487 10.7246 10.5676C10.4207 10.8839 10.0079 11.1429 9.54113 11.3482C8.60603 11.7597 7.35361 12 6 12C4.64639 12 3.39397 11.7597 2.4589 11.3482C1.99215 11.1429 1.57929 10.8839 1.27534 10.5676C0.96873 10.2487 0.75 9.8448 0.75 9.375V2.625ZM1.875 6V4.29336C2.05586 4.40574 2.25209 4.50728 2.4589 4.59827C3.39397 5.00971 4.64639 5.25 6 5.25C7.35361 5.25 8.60603 5.00971 9.54113 4.59827C9.7479 4.50728 9.94417 4.40574 10.125 4.29336V6C10.125 6.09978 10.0814 6.23846 9.91365 6.413C9.74317 6.59032 9.46957 6.77567 9.08805 6.94355C8.32658 7.27859 7.23523 7.5 6 7.5C4.76477 7.5 3.67345 7.27859 2.91198 6.94355C2.53045 6.77567 2.25685 6.59032 2.08639 6.413C1.9186 6.23846 1.875 6.09978 1.875 6ZM1.875 7.66838V9.375C1.875 9.47475 1.9186 9.61343 2.08639 9.78802C2.25685 9.96533 2.53045 10.1507 2.91198 10.3186C3.67345 10.6536 4.76477 10.875 6 10.875C7.23523 10.875 8.32658 10.6536 9.08805 10.3186C9.46957 10.1507 9.74317 9.96533 9.91365 9.78802C10.0814 9.61343 10.125 9.47475 10.125 9.375V7.66838C9.94417 7.78073 9.7479 7.88227 9.54113 7.97325C8.60603 8.3847 7.35361 8.625 6 8.625C4.64639 8.625 3.39397 8.3847 2.4589 7.97325C2.25209 7.88227 2.05586 7.78073 1.875 7.66838Z" fill="#4172ED"/>
</svg>
