<svg width="10" height="13" viewBox="0 0 10 13" fill="none" xmlns="http://www.w3.org/2000/svg">
<path d="M3.77804 13.0005C3.74018 12.9855 3.70233 12.9709 3.66447 12.9553C3.43029 12.859 3.2952 12.629 3.34085 12.4058C3.3891 12.1704 3.60138 11.9889 3.86154 11.9872C4.6205 11.9821 5.37982 11.9821 6.13877 11.9872C6.39893 11.9889 6.61085 12.1701 6.65947 12.4058C6.70548 12.629 6.5704 12.8587 6.33584 12.9553C6.29836 12.9709 6.2605 12.9855 6.22265 13.0005C5.40766 13.0005 4.59266 13.0005 3.77804 13.0005Z" fill="#4172ED"/>
<path d="M4.44532 1.04105C4.44532 0.871439 4.44421 0.70285 4.44569 0.534261C4.44829 0.225238 4.68396 -0.000338831 5.00164 3.82057e-07C5.3197 0.000339595 5.55351 0.225238 5.55647 0.535618C5.55796 0.704207 5.55685 0.872796 5.55685 1.04037C5.74649 1.08277 5.92723 1.11601 6.10314 1.16384C7.74464 1.60855 8.87546 2.97354 8.88845 4.53698C8.89698 5.56072 8.89327 6.58481 8.88845 7.60889C8.88733 7.85448 8.97306 8.0268 9.21727 8.16045C9.85672 8.51052 10.1406 9.21235 9.93614 9.86703C9.73536 10.5102 9.08477 10.9671 8.34772 10.9681C6.1165 10.9712 3.88529 10.9712 1.65408 10.9681C0.914055 10.9671 0.252708 10.498 0.0623204 9.8538C-0.135119 9.18657 0.161411 8.49424 0.810511 8.1462C1.02985 8.0285 1.11409 7.86703 1.11372 7.64552C1.11149 6.63433 1.11187 5.62314 1.11298 4.61194C1.11483 2.99288 2.20966 1.63806 3.90162 1.16384C4.07197 1.11533 4.24937 1.08446 4.44532 1.04105ZM4.99904 9.95319C6.10537 9.95319 7.2117 9.95387 8.3184 9.95251C8.58821 9.95217 8.79567 9.80835 8.86692 9.58209C8.93744 9.35753 8.84391 9.13229 8.6075 9.00712C8.02929 8.70115 7.77915 8.23372 7.77915 7.63806C7.77915 6.63535 7.78175 5.63229 7.77655 4.62958C7.77544 4.44471 7.75837 4.25712 7.722 4.07497C7.45404 2.73338 5.96509 1.80936 4.50582 2.07327C3.14193 2.31988 2.2245 3.34023 2.22302 4.61364C2.2219 5.64179 2.22933 6.66995 2.22005 7.6981C2.21485 8.25746 1.96137 8.70115 1.42064 8.9922C1.35013 9.03019 1.28036 9.07904 1.231 9.13738C1.09554 9.29749 1.06919 9.47761 1.16753 9.66181C1.27293 9.85957 1.45404 9.95285 1.69379 9.95319C2.79567 9.95319 3.89754 9.95319 4.99904 9.95319Z" fill="#4172ED"/>
</svg>
