<svg width="24" height="24" viewBox="0 0 24 24" fill="none" xmlns="http://www.w3.org/2000/svg">
<circle cx="12" cy="12" r="12" fill="#039C81" fill-opacity="0.11"/>
<g clip-path="url(#clip0_965_32492)">
<path fill-rule="evenodd" clip-rule="evenodd" d="M9.5625 6.875C9.04473 6.875 8.625 7.29473 8.625 7.8125C8.625 8.33027 9.04473 8.75 9.5625 8.75H11.2941C11.1193 8.13683 10.8875 7.69919 10.6354 7.40513C10.3129 7.02885 9.94958 6.875 9.5625 6.875ZM7.5 7.8125C7.5 8.15008 7.5811 8.46873 7.72489 8.75H7.3125C6.58763 8.75 6 9.33763 6 10.0625V11.5625C6 12.0861 6.30657 12.538 6.75 12.7487V16.4375C6.75 17.1624 7.33763 17.75 8.0625 17.75H15.9375C16.6624 17.75 17.25 17.1624 17.25 16.4375V12.7487C17.6934 12.538 18 12.0861 18 11.5625V10.0625C18 9.33763 17.4124 8.75 16.6875 8.75H16.2751C16.4189 8.46873 16.5 8.15008 16.5 7.8125C16.5 6.67342 15.5766 5.75 14.4375 5.75C13.6996 5.75 13.0316 6.0649 12.5104 6.67299C12.3186 6.89682 12.1483 7.15792 12 7.45478C11.8517 7.15792 11.6814 6.89682 11.4896 6.67299C10.9684 6.0649 10.3004 5.75 9.5625 5.75C8.42341 5.75 7.5 6.67342 7.5 7.8125ZM12.706 8.75H14.4375C14.9553 8.75 15.375 8.33027 15.375 7.8125C15.375 7.29473 14.9553 6.875 14.4375 6.875C14.0504 6.875 13.6871 7.02885 13.3646 7.40513C13.1125 7.69919 12.8807 8.13683 12.706 8.75ZM7.3125 9.875C7.20895 9.875 7.125 9.95895 7.125 10.0625V11.5625C7.125 11.6661 7.20895 11.75 7.3125 11.75H11.4375V9.875H7.3125ZM12.5625 9.875V11.75H16.6875C16.7911 11.75 16.875 11.6661 16.875 11.5625V10.0625C16.875 9.95895 16.7911 9.875 16.6875 9.875H12.5625ZM12.5625 12.875H16.125V16.4375C16.125 16.5411 16.0411 16.625 15.9375 16.625H12.5625V12.875ZM11.4375 12.875V16.625H8.0625C7.95895 16.625 7.875 16.5411 7.875 16.4375V12.875H11.4375Z" fill="#039C81"/>
</g>
<defs>
<clipPath id="clip0_965_32492">
<rect width="12" height="12" fill="white" transform="translate(6 5.75)"/>
</clipPath>
</defs>
</svg>
