<svg width="24" height="24" viewBox="0 0 24 24" fill="none" xmlns="http://www.w3.org/2000/svg">
<path fill-rule="evenodd" clip-rule="evenodd" d="M11.625 3C11.9234 3 12.2095 3.11853 12.4205 3.32951C12.6315 3.54048 12.75 3.82664 12.75 4.125V10.5H19.125C19.4233 10.5 19.7096 10.6185 19.9205 10.8295C20.1315 11.0405 20.25 11.3266 20.25 11.625C20.25 11.9234 20.1315 12.2095 19.9205 12.4205C19.7096 12.6315 19.4233 12.75 19.125 12.75H12.75V19.125C12.75 19.4233 12.6315 19.7096 12.4205 19.9205C12.2095 20.1315 11.9234 20.25 11.625 20.25C11.3266 20.25 11.0405 20.1315 10.8295 19.9205C10.6185 19.7096 10.5 19.4233 10.5 19.125V12.75H4.125C3.82664 12.75 3.54048 12.6315 3.32951 12.4205C3.11853 12.2095 3 11.9234 3 11.625C3 11.3266 3.11853 11.0405 3.32951 10.8295C3.54048 10.6185 3.82664 10.5 4.125 10.5H10.5V4.125C10.5 3.82664 10.6185 3.54048 10.8295 3.32951C11.0405 3.11853 11.3266 3 11.625 3Z" fill="#4172ED"/>
</svg>
