<svg width="40" height="40" viewBox="0 0 40 40" fill="none" xmlns="http://www.w3.org/2000/svg">
<rect width="40" height="40" rx="6" fill="#FFE4E9"/>
<path fill-rule="evenodd" clip-rule="evenodd" d="M11.5992 13.6396C11.5164 13.6396 11.4369 13.6726 11.3783 13.7312C11.3197 13.7898 11.2867 13.8693 11.2867 13.9521V15.8271C11.2867 15.9996 11.4267 16.1396 11.5992 16.1396H27.2242C27.3071 16.1396 27.3866 16.1067 27.4452 16.0481C27.5039 15.9895 27.5367 15.91 27.5367 15.8271V13.9521C27.5367 13.8693 27.5039 13.7898 27.4452 13.7312C27.3866 13.6726 27.3071 13.6396 27.2242 13.6396H11.5992ZM9.41174 13.9521C9.41174 12.7446 10.3917 11.7646 11.5992 11.7646H27.2242C28.4317 11.7646 29.4117 12.7446 29.4117 13.9521V15.8271C29.4117 16.4073 29.1812 16.9637 28.771 17.3739C28.3607 17.7842 27.8044 18.0146 27.2242 18.0146H11.5992C11.0191 18.0146 10.4627 17.7842 10.0524 17.3739C9.64221 16.9637 9.41174 16.4073 9.41174 15.8271V13.9521ZM11.5992 19.2646C11.8479 19.2646 12.0863 19.3634 12.2622 19.5392C12.438 19.715 12.5367 19.9535 12.5367 20.2021V27.0771C12.5367 27.2496 12.6767 27.3896 12.8492 27.3896H25.9742C26.0571 27.3896 26.1366 27.3568 26.1952 27.2981C26.2539 27.2395 26.2867 27.16 26.2867 27.0771V20.2021C26.2867 19.9535 26.3855 19.715 26.5614 19.5392C26.7371 19.3634 26.9756 19.2646 27.2242 19.2646C27.4729 19.2646 27.7114 19.3634 27.8871 19.5392C28.063 19.715 28.1617 19.9535 28.1617 20.2021V27.0771C28.1617 27.6573 27.9312 28.2136 27.521 28.6239C27.1107 29.0341 26.5544 29.2646 25.9742 29.2646H12.8492C12.2691 29.2646 11.7127 29.0341 11.3024 28.6239C10.8922 28.2136 10.6617 27.6573 10.6617 27.0771V20.2021C10.6617 19.9535 10.7605 19.715 10.9363 19.5392C11.1121 19.3634 11.3506 19.2646 11.5992 19.2646ZM17.2242 20.5146C16.9756 20.5146 16.7371 20.6134 16.5613 20.7892C16.3855 20.965 16.2867 21.2035 16.2867 21.4521C16.2867 21.7008 16.3855 21.9392 16.5613 22.1151C16.7371 22.2909 16.9756 22.3896 17.2242 22.3896H21.5992C21.8479 22.3896 22.0864 22.2909 22.2621 22.1151C22.438 21.9392 22.5367 21.7008 22.5367 21.4521C22.5367 21.2035 22.438 20.965 22.2621 20.7892C22.0864 20.6134 21.8479 20.5146 21.5992 20.5146H17.2242Z" fill="#FF5574"/>
</svg>
