<svg width="13" height="15" viewBox="0 0 13 15" fill="none" xmlns="http://www.w3.org/2000/svg">
<path d="M5.43378 14.344C5.2656 14.3191 5.09657 14.2954 4.92882 14.2686C3.05491 13.9707 1.64402 13.0487 0.726102 11.523C-0.0326218 10.2616 -0.191812 8.90971 0.225421 7.5136C0.568623 6.36558 1.25931 5.42536 2.27778 4.69491C3.36345 3.91626 4.60188 3.554 5.97255 3.55716C7.1361 3.55993 8.29922 3.55756 9.46276 3.55756C9.51625 3.55756 9.56975 3.55756 9.65405 3.55756C9.59628 3.49988 9.56119 3.46314 9.52353 3.42838C8.70832 2.67541 7.89182 1.92323 7.07747 1.16947C6.79889 0.911899 6.74882 0.580846 6.93839 0.303915C7.16092 -0.0208176 7.65689 -0.0998279 7.99025 0.137598C8.04588 0.177498 8.0968 0.223719 8.14687 0.26994C9.3776 1.40532 10.6079 2.54149 11.8382 3.67726C12.2362 4.04466 12.2379 4.40771 11.8429 4.77234C10.6019 5.91838 9.36092 7.06403 8.11948 8.20968C7.8118 8.49372 7.41254 8.5352 7.107 8.31793C6.79033 8.09275 6.73298 7.67162 6.98247 7.38284C7.02954 7.32832 7.08346 7.27815 7.13695 7.22877C7.93077 6.49555 8.72501 5.76234 9.51882 5.02912C9.55648 4.99436 9.592 4.95722 9.64249 4.90705C9.59756 4.90231 9.57445 4.89797 9.55134 4.89797C8.28681 4.89876 7.02184 4.88058 5.75773 4.90508C3.73874 4.94458 2.07751 6.1882 1.58197 7.99556C1.12536 9.66189 1.93629 11.4894 3.52178 12.3877C4.26125 12.8069 5.06105 13.0099 5.92633 13.0064C6.57379 13.0036 7.22125 13.0036 7.86872 13.0072C8.18752 13.0088 8.42931 13.1502 8.49778 13.4007C8.59192 13.7463 8.54742 14.0553 8.29451 14.2212C8.21791 14.2713 8.12804 14.3041 8.04417 14.3448C7.17375 14.344 6.30377 14.344 5.43378 14.344Z" fill="white"/>
</svg>
