<svg width="17" height="17" viewBox="0 0 17 17" fill="none" xmlns="http://www.w3.org/2000/svg">
<path fill-rule="evenodd" clip-rule="evenodd" d="M16.0397 6.7209C15.5338 3.60696 12.8889 1.29036 9.73539 1.19916C9.58546 1.19329 9.43934 1.24727 9.32924 1.34921C9.21914 1.45116 9.15409 1.5927 9.14844 1.74264V1.74264V1.79337L9.50351 7.10496C9.5268 7.46252 9.8342 7.73432 10.1919 7.71366L15.518 7.35858C15.6681 7.34749 15.8075 7.277 15.9055 7.16275C16.0034 7.04849 16.0517 6.8999 16.0397 6.74989V6.7209Z" stroke="white" stroke-linecap="round" stroke-linejoin="round"/>
<path d="M6.04705 4.35857C6.38585 4.2802 6.73255 4.45355 6.87314 4.77161C6.90996 4.84642 6.9321 4.9276 6.93835 5.01074C7.01082 6.03973 7.16299 8.29335 7.24995 9.51074C7.26479 9.73004 7.36642 9.93437 7.53234 10.0785C7.69826 10.2227 7.91479 10.2948 8.134 10.2789V10.2789L12.605 10.0035C12.8046 9.9915 13.0003 10.0625 13.1458 10.1997C13.2912 10.3369 13.3735 10.5282 13.3731 10.7281V10.7281C13.1919 13.428 11.2522 15.6851 8.61023 16.2701C5.96828 16.8552 3.25695 15.6281 1.95285 13.2571C1.56354 12.5747 1.31701 11.8203 1.22821 11.0397C1.19025 10.8002 1.17568 10.5575 1.18473 10.3151C1.19242 7.43184 3.21734 4.94754 6.0398 4.35857" stroke="white" stroke-linecap="round" stroke-linejoin="round"/>
</svg>
