<svg width="15" height="16" viewBox="0 0 15 16" fill="none" xmlns="http://www.w3.org/2000/svg">
<path d="M7.32693 0.00113907C7.64055 0.0599912 7.96068 0.0953025 8.26627 0.182252C9.5288 0.54068 10.4647 1.31031 11.0828 2.45698C11.4553 3.14802 11.6067 3.89411 11.6025 4.67476C11.5995 5.2405 11.6025 5.80624 11.6018 6.37197C11.6006 6.98783 11.2224 7.36563 10.6054 7.36791C10.4532 7.36828 10.301 7.36791 10.1725 7.36791C10.0558 7.76202 9.96175 8.14817 9.82598 8.51951C9.68791 8.8973 9.44083 9.21586 9.16125 9.51164C9.32533 9.83741 9.4829 10.159 9.65081 10.4757C9.67682 10.5247 9.74489 10.5626 9.80188 10.582C10.2582 10.738 10.7206 10.877 11.173 11.0429C12.4249 11.5016 13.2445 12.3946 13.7356 13.6043C13.9348 14.0956 14.0312 14.6105 14.0431 15.1402C14.0488 15.4052 13.9348 15.5225 13.6671 15.5225C9.23468 15.5233 4.80264 15.5233 0.370209 15.5225C0.112808 15.5225 -0.0134069 15.4018 0.0011269 15.1497C0.104776 13.3598 0.899928 11.9918 2.5411 11.1853C3.05131 10.9347 3.61775 10.7946 4.162 10.615C4.30237 10.5687 4.39492 10.5026 4.4565 10.3656C4.56818 10.1172 4.69555 9.87538 4.82367 9.63428C4.86995 9.54733 4.86421 9.49417 4.79766 9.41216C4.63244 9.20865 4.46606 9.0002 4.34291 8.77086C4.25953 8.61633 4.1708 8.5738 4.00557 8.5757C3.6101 8.58026 3.29762 8.40978 3.14425 8.04148C3.0735 7.871 3.06967 7.66938 3.0559 7.48067C3.04825 7.37246 3.03372 7.30602 2.92127 7.2483C2.61759 7.09263 2.44778 6.82798 2.44625 6.49006C2.44204 5.70752 2.41068 4.9208 2.47455 4.14243C2.59503 2.67227 3.31751 1.53091 4.55786 0.720274C5.18931 0.30755 5.88999 0.0808742 6.64422 0.0205033C6.6687 0.0186049 6.69241 0.00721413 6.71651 0C6.9196 0.00113907 7.12346 0.00113907 7.32693 0.00113907ZM4.93688 8.58861C5.11856 8.89882 5.34536 9.14562 5.62341 9.34496C6.98079 10.3173 8.91073 9.6882 9.39149 7.90707C9.54831 7.32614 9.59458 6.71446 9.6749 6.11454C9.71697 5.80092 9.72386 5.48274 9.74681 5.1676C9.41559 5.10684 9.09852 5.0628 8.78872 4.98838C7.87692 4.77006 7.07259 4.3448 6.37496 3.71983C6.33213 3.6811 6.25869 3.64997 6.20324 3.65491C5.79897 3.69098 5.436 3.8364 5.11129 4.0794C4.77969 4.32772 4.56512 4.67514 4.32073 4.99673C4.29472 5.03091 4.29548 5.09318 4.30007 5.14064C4.36356 5.80889 4.42361 6.47753 4.49857 7.14465C4.52994 7.42258 4.59381 7.69672 4.64276 7.96972C4.96289 7.96972 5.25242 7.96972 5.54386 7.96972C5.70297 7.60749 5.97261 7.39372 6.37305 7.3717C6.59641 7.35917 6.82092 7.36107 7.04467 7.37094C7.55411 7.39334 7.94002 7.79354 7.93658 8.28486C7.93276 8.77618 7.54111 9.16688 7.03052 9.18511C6.87791 9.19042 6.72492 9.18017 6.5727 9.18776C6.09576 9.21168 5.74198 9.03285 5.5473 8.58823C5.34727 8.58861 5.15183 8.58861 4.93688 8.58861ZM4.34406 11.1906C3.99831 11.3049 3.62961 11.434 3.2567 11.5491C2.4103 11.8103 1.75666 12.3202 1.27245 13.0496C0.899928 13.6112 0.682303 14.2274 0.625698 14.9086C2.57132 14.9086 4.50661 14.9086 6.46829 14.9086C6.07281 14.3011 5.66013 13.7258 5.31094 13.1141C4.95868 12.4983 4.6703 11.8467 4.34406 11.1906ZM7.5587 14.9059C9.54027 14.9059 11.4752 14.9059 13.4246 14.9059C13.2873 13.7273 12.7786 12.7709 11.8267 12.0601C11.1845 11.5806 10.3955 11.4568 9.64698 11.1667C9.19299 12.5454 8.38407 13.7141 7.5587 14.9059ZM4.29166 4.01333C4.34291 3.96511 4.36165 3.94955 4.37771 3.93208C4.75789 3.51632 5.22526 3.24674 5.77258 3.11119C6.18602 3.00867 6.53445 3.01019 6.8978 3.3485C7.68913 4.08586 8.67513 4.43745 9.75216 4.53617C9.75751 4.5244 9.7644 4.51567 9.76517 4.50617C9.86652 3.43203 9.19835 2.37573 8.18595 1.98616C7.72623 1.80923 7.25082 1.8153 6.77273 1.82024C5.97758 1.82897 5.32279 2.13462 4.81985 2.74706C4.52841 3.10284 4.35477 3.51138 4.29166 4.01333ZM10.3809 4.23469C10.5791 4.23469 10.7734 4.23469 10.9684 4.23469C10.8338 2.21626 9.04039 0.49132 6.79912 0.617378C4.52037 0.745713 3.12322 2.6491 3.08612 4.24533C3.18212 4.24533 3.27812 4.24533 3.37412 4.24533C3.46897 4.24533 3.56344 4.24533 3.65332 4.24533C3.65867 4.21913 3.6602 4.21419 3.66059 4.20926C3.66441 4.16407 3.6667 4.11851 3.67168 4.07333C3.81587 2.76149 4.5001 1.85783 5.74504 1.38625C6.34092 1.16072 6.96703 1.18084 7.58471 1.23438C8.49958 1.31411 9.23239 1.74316 9.78085 2.47521C10.1694 2.99386 10.3568 3.58239 10.3809 4.23469ZM8.12858 12.9691C7.73387 12.5784 7.35714 12.2059 6.97161 11.8243C6.65455 12.1573 6.32907 12.5032 5.99709 12.8431C5.92365 12.9182 5.91371 12.9687 5.9749 13.0595C6.31339 13.5622 6.6446 14.0702 6.9785 14.5763C6.98883 14.5919 7.00298 14.6048 7.02172 14.6261C7.39654 14.0653 7.76562 13.5128 8.12858 12.9691ZM8.48084 12.3939C8.69578 11.8752 8.90461 11.3736 9.11038 10.8713C9.12224 10.8428 9.12262 10.7996 9.10923 10.7726C8.98378 10.5159 8.85413 10.2612 8.71797 9.99119C8.27698 10.454 7.849 10.9036 7.4256 11.3482C7.77059 11.6899 8.10793 12.0244 8.48084 12.3939ZM6.53751 11.3979C6.10418 10.9685 5.68155 10.5497 5.25624 10.1283C5.16101 10.3158 5.05392 10.5152 4.96021 10.7206C4.93459 10.7768 4.92732 10.8599 4.9495 10.9157C5.10096 11.295 5.26045 11.6709 5.42185 12.0461C5.47004 12.1581 5.53277 12.2644 5.59511 12.3859C5.92327 12.0419 6.23422 11.7161 6.53751 11.3979ZM3.65906 4.86156C3.46094 4.86156 3.26129 4.86156 3.05284 4.86156C3.05284 5.39959 3.04902 5.92774 3.05514 6.45589C3.05705 6.62181 3.16414 6.73952 3.3244 6.75318C3.48427 6.76685 3.64605 6.75622 3.8109 6.75622C3.75926 6.1191 3.70954 5.49337 3.65906 4.86156ZM10.2325 6.76154C10.3653 6.76154 10.4865 6.7623 10.6074 6.76154C10.8766 6.75926 10.9894 6.64991 10.991 6.3864C10.9925 6.10923 10.9914 5.83243 10.9914 5.55526C10.9914 5.32517 10.9914 5.09507 10.9914 4.85853C10.7791 4.85853 10.5833 4.85853 10.384 4.85853C10.3339 5.49033 10.2838 6.11606 10.2325 6.76154ZM6.71766 7.97541C6.61592 7.97541 6.5138 7.96972 6.41245 7.97655C6.2346 7.9887 6.10838 8.11628 6.10762 8.27575C6.10685 8.4356 6.23192 8.56925 6.40939 8.57722C6.61248 8.58633 6.81633 8.58595 7.01942 8.5776C7.19727 8.57039 7.3231 8.43863 7.32425 8.27916C7.32502 8.11969 7.19995 7.98984 7.02248 7.97731C6.92151 7.96972 6.81939 7.97579 6.71766 7.97541ZM7.00642 10.904C7.15979 10.743 7.3254 10.5691 7.50898 10.3762C7.12957 10.3762 6.77885 10.3762 6.47823 10.3762C6.6251 10.5235 6.80945 10.7077 7.00642 10.904ZM4.01628 7.96022C3.99792 7.85581 3.98186 7.76164 3.96465 7.66786C3.94667 7.57028 3.92793 7.4727 3.90919 7.3755C3.82313 7.3755 3.74932 7.3755 3.67703 7.3755C3.61966 7.73696 3.69921 7.98414 4.01628 7.96022Z" fill="#3BA20B"/>
</svg>
