<svg width="21" height="21" viewBox="0 0 21 21" fill="none" xmlns="http://www.w3.org/2000/svg">
<path fill-rule="evenodd" clip-rule="evenodd" d="M18.375 16.625C18.8582 16.625 19.25 17.0168 19.25 17.5C19.25 17.9832 18.8582 18.375 18.375 18.375H2.625C2.14175 18.375 1.75 17.9832 1.75 17.5C1.75 17.0168 2.14175 16.625 2.625 16.625H18.375ZM13.125 13.125C13.6082 13.125 14 13.5168 14 14C14 14.4832 13.6082 14.875 13.125 14.875H2.625C2.14175 14.875 1.75 14.4832 1.75 14C1.75 13.5168 2.14175 13.125 2.625 13.125H13.125ZM18.375 9.625C18.8582 9.625 19.25 10.0168 19.25 10.5C19.25 10.9832 18.8582 11.375 18.375 11.375H2.625C2.14175 11.375 1.75 10.9832 1.75 10.5C1.75 10.0168 2.14175 9.625 2.625 9.625H18.375ZM13.125 6.125C13.6082 6.125 14 6.51675 14 7C14 7.48325 13.6082 7.875 13.125 7.875H2.625C2.14175 7.875 1.75 7.48325 1.75 7C1.75 6.51675 2.14175 6.125 2.625 6.125H13.125ZM18.375 2.625C18.8582 2.625 19.25 3.01675 19.25 3.5C19.25 3.98325 18.8582 4.375 18.375 4.375H2.625C2.14175 4.375 1.75 3.98325 1.75 3.5C1.75 3.01675 2.14175 2.625 2.625 2.625H18.375Z" fill="#4172ED"/>
</svg>
