<svg width="15" height="10" viewBox="0 0 15 10" fill="none" xmlns="http://www.w3.org/2000/svg">
<path d="M15 5.20235C15 6.27124 15 7.33704 15 8.40593C14.8998 8.65925 14.7057 8.75811 14.4364 8.74266C14.3018 8.7334 14.1641 8.74575 14.0263 8.73957C13.9418 8.73649 13.8979 8.75811 13.8666 8.84461C13.5786 9.56441 12.9368 10.0031 12.176 10.0031C11.412 10.0062 10.7671 9.5675 10.4728 8.83843C10.4415 8.7612 10.4039 8.73957 10.3225 8.73957C8.99812 8.74266 7.67689 8.74266 6.35254 8.73957C6.27426 8.73957 6.23356 8.75811 6.20225 8.83843C5.90482 9.57059 5.26299 10.0062 4.49906 10.0031C3.73513 10 3.0933 9.56441 2.799 8.83225C2.76769 8.75502 2.73325 8.73031 2.65185 8.73031C2.4139 8.73649 2.17282 8.7334 1.93488 8.7334C1.54352 8.7334 1.38698 8.57584 1.38698 8.18968C1.38698 6.96324 1.38698 5.73679 1.38698 4.51035C1.38698 4.45474 1.38698 4.39914 1.38698 4.32808C1.09894 4.32808 0.832812 4.31881 0.563557 4.33117C0.294302 4.34044 0.100188 4.24776 0 3.99135C0 3.92339 0 3.85542 0 3.79055C0.10645 3.54032 0.297433 3.44764 0.566688 3.45999C0.832812 3.47235 1.10207 3.46308 1.37132 3.46308C1.37132 3.16651 1.37132 2.88539 1.37132 2.595C1.25861 2.595 1.15529 2.60117 1.05197 2.595C0.79211 2.57955 0.604258 2.38801 0.613651 2.14705C0.623043 1.91226 0.807765 1.73926 1.06763 1.73309C1.16781 1.73 1.268 1.73309 1.38384 1.73309C1.38384 1.31603 1.38384 0.917516 1.38384 0.518999C1.38698 0.166821 1.54978 0 1.90044 0C4.5742 0 7.24797 0 9.92173 0C10.2599 0 10.4258 0.166821 10.4289 0.494285C10.4289 1.04109 10.4289 1.59098 10.4289 2.13778C10.4289 2.18721 10.4289 2.23973 10.4289 2.29534C10.9393 2.29534 11.4277 2.30151 11.9161 2.29225C12.1259 2.28916 12.2855 2.35403 12.4327 2.50541C13.2123 3.30862 14.0013 4.09947 14.7808 4.90269C14.8685 4.98919 14.928 5.1004 15 5.20235ZM2.27301 1.73C2.34189 1.73 2.39512 1.73 2.44834 1.73C3.2154 1.73 3.98247 1.73 4.7464 1.73C4.79649 1.73 4.84346 1.73 4.89355 1.73309C5.12837 1.74853 5.29743 1.91535 5.30996 2.13778C5.32248 2.3633 5.1722 2.54557 4.94051 2.58573C4.88416 2.595 4.82467 2.595 4.76832 2.595C3.99812 2.595 3.2248 2.595 2.4546 2.595C2.39825 2.595 2.33876 2.595 2.27927 2.595C2.27927 2.89157 2.27927 3.17269 2.27927 3.45999C2.72699 3.45999 3.16218 3.45999 3.59424 3.45999C3.91046 3.45999 4.22981 3.4569 4.54602 3.46308C4.81528 3.46926 5 3.66389 4.99061 3.91412C4.97808 4.16126 4.79023 4.32499 4.50219 4.32499C3.81966 4.32808 3.134 4.32499 2.45147 4.32499C2.39512 4.32499 2.33876 4.32499 2.27614 4.32499C2.27614 5.51437 2.27614 6.68211 2.27614 7.85604C2.42956 7.85604 2.56731 7.85604 2.70507 7.85604C3.10582 6.8582 3.67877 6.41026 4.53037 6.4257C5.3757 6.44115 5.96118 6.9169 6.28992 7.85604C7.37007 7.85604 8.45022 7.85604 9.53976 7.85604C9.53976 5.51746 9.53976 3.19432 9.53976 0.868088C7.11334 0.868088 4.69944 0.868088 2.27301 0.868088C2.27301 1.15848 2.27301 1.43343 2.27301 1.73ZM13.9574 7.86222C14.0075 7.86222 14.0576 7.86222 14.1108 7.86222C14.1108 7.1486 14.1108 6.44424 14.1108 5.7337C12.8804 5.7337 11.6562 5.7337 10.4289 5.7337C10.4289 6.3701 10.4289 6.99722 10.4289 7.65524C10.789 6.84276 11.3776 6.39481 12.2605 6.43806C13.1716 6.48749 13.7101 7.01885 13.9574 7.86222ZM13.4909 4.85017C13.4784 4.82855 13.4753 4.8131 13.4659 4.80383C12.9461 4.27556 12.4296 3.74421 11.9067 3.22212C11.8691 3.18505 11.7971 3.16342 11.7408 3.16342C11.3901 3.15724 11.0394 3.16033 10.6888 3.16033C10.6043 3.16033 10.5166 3.16033 10.4289 3.16033C10.4289 3.73803 10.4289 4.29101 10.4289 4.85017C11.4527 4.85017 12.4671 4.85017 13.4909 4.85017ZM4.48028 9.135C5.00313 9.14736 5.4258 8.74575 5.43519 8.22984C5.44458 7.72629 5.03757 7.30924 4.52098 7.29688C4.00751 7.28452 3.58172 7.68304 3.56919 8.18968C3.55667 8.70868 3.95742 9.12265 4.48028 9.135ZM13.0996 8.22058C13.1027 7.70467 12.6863 7.29379 12.1666 7.29688C11.65 7.29997 11.2367 7.70467 11.2336 8.21131C11.2304 8.72104 11.65 9.13809 12.1728 9.135C12.6863 9.135 13.0996 8.73031 13.0996 8.22058Z" fill="#4172ED"/>
</svg>
