<svg width="25" height="24" viewBox="0 0 25 24" fill="none" xmlns="http://www.w3.org/2000/svg">
<circle cx="12.293" cy="12" r="12" fill="#FFFCE4"/>
<path d="M13.8102 7.0105V8.72466" stroke="#FFE70B" stroke-linecap="round" stroke-linejoin="round"/>
<path d="M13.8102 16.5798V18.0135" stroke="#FFE70B" stroke-linecap="round" stroke-linejoin="round"/>
<path d="M13.8102 14.1463V10.7314" stroke="#FFE70B" stroke-linecap="round" stroke-linejoin="round"/>
<path fill-rule="evenodd" clip-rule="evenodd" d="M17.2472 18.1666C18.5378 18.1666 19.5832 17.1342 19.5832 15.8596V14.0233C18.7292 14.0233 18.0414 13.344 18.0414 12.5006C18.0414 11.6573 18.7292 10.9773 19.5832 10.9773L19.5824 9.14019C19.5824 7.86561 18.5363 6.83325 17.2464 6.83325H7.75324C6.46334 6.83325 5.41724 7.86561 5.41724 9.14019L5.4165 11.0371C6.27052 11.0371 6.95832 11.6573 6.95832 12.5006C6.95832 13.344 6.27052 14.0233 5.4165 14.0233V15.8596C5.4165 17.1342 6.46186 18.1666 7.7525 18.1666H17.2472Z" stroke="#FFE70B" stroke-linecap="round" stroke-linejoin="round"/>
</svg>
